<svg width="512" height="512" viewBox="0 0 512 512" fill="none" xmlns="http://www.w3.org/2000/svg">
<rect width="512" height="512" fill="#E5E5E5"/>
<rect width="512" height="512" fill="#EFEBCE"/>
<path d="M175.432 331C165.824 331 157.447 325.434 153.382 317.395L121.232 200.389L120 194.947C120 191.667 121.298 188.521 123.608 186.202C125.918 183.882 129.051 182.579 132.318 182.579H188.735L245.399 101.318C247.616 98.1026 251.312 96 255.5 96C259.688 96 263.507 98.1026 265.724 101.442L322.265 182.579H378.682C381.949 182.579 385.082 183.882 387.392 186.202C389.702 188.521 391 191.667 391 194.947L390.507 198.534L357.618 317.395C353.553 325.434 345.176 331 335.568 331H175.432ZM255.5 129.889L218.545 182.579H292.455L255.5 129.889ZM255.5 232.053C248.966 232.053 242.7 234.659 238.079 239.298C233.459 243.937 230.864 250.229 230.864 256.789C230.864 263.35 233.459 269.642 238.079 274.281C242.7 278.92 248.966 281.526 255.5 281.526C262.034 281.526 268.3 278.92 272.921 274.281C277.541 269.642 280.136 263.35 280.136 256.789C280.136 250.229 277.541 243.937 272.921 239.298C268.3 234.659 262.034 232.053 255.5 232.053Z" fill="#BB8588"/>
<path d="M298.061 337.636C306.234 337.636 313.123 340.491 318.73 346.2C324.337 351.909 327.093 358.57 326.998 366.182L212.535 409L112.754 380.455V252H140.55L244.18 290.394C251.592 293.343 255.298 298.672 255.298 306.379C255.298 310.851 253.683 314.752 250.452 318.083C247.221 321.413 243.134 323.173 238.193 323.364H198.281L173.335 313.801L168.631 327.217L198.281 337.636H298.061ZM27 252H84.2456V409H27V252Z" fill="#474747"/>
</svg>
